:SAMPLES-PER-SECOND 30
:FULLY-SPECIFIED
:DEGREES
58
root  -22.2488 38.6142 -17.3635 155.311 -76.5738 -158.089
RightUpLeg  15.0981 -14.0293 -1.13069
RightLeg  17.5277 -6.5216 1.99543
RightFoot  -21.2168 0.250067 4.5517
RightToes  0.00048216 0.542163 -0.142577
Spine  11.4499 -0.0994228 11.2403
Spine1  16.432 2.8859 -5.66014
HEad  3.46058 21.0837 -14.2137
LeftShoulder1  9.36418 -14.051 -46.537
LeftArm  -8.13274 15.422 -21.5729
LeftForeArm  23.889 -14.1716 -4.88023
LeftHand  -0.25398 0.0180481 5.50724
RightShoulder  4.99115 9.32798 32.955
RightArm  -10.1751 13.0876 25.3993
RightForeArm  -6.28685 29.7775 6.81855
RightHand  -1.78157 4.28396 -21.4858
LeftUpLeg  -18.9826 7.67409 1.40543
LeftLeg  -5.72737 44.6541 -15.5756
LeftFoot  -2.24382 0.734226 -9.03781
LeftToes  1.06244e-005 4.65854e-005 -8.18505e-006
59
root  -24.0433 38.2403 -18.0381 153.795 -77.443 -156.252
RightUpLeg  17.8398 -17.5866 -2.71507
RightLeg  18.9818 -2.68715 1.8549
RightFoot  -21.772 0.454191 6.52535
RightToes  0.00048216 0.542163 -0.142577
Spine  10.4681 0.36688 9.96091
Spine1  16.7427 3.3908 -5.90975
HEad  3.65227 21.567 -13.5836
LeftShoulder1  9.15157 -13.8319 -46.0415
LeftArm  -8.75144 18.1759 -20.7793
LeftForeArm  23.4176 -14.2467 -4.65715
LeftHand  -0.25398 0.0180481 5.50724
RightShoulder  4.95435 9.21464 33.0129
RightArm  -10.9165 12.5578 26.3576
RightForeArm  -5.50035 33.0015 7.62419
RightHand  -1.78002 4.08011 -21.8998
LeftUpLeg  -19.6442 8.73638 -0.222754
LeftLeg  -4.80172 48.1915 -15.5528
LeftFoot  -3.61286 0.30977 -4.22888
LeftToes  1.06244e-005 4.65854e-005 -8.18505e-006
60
root  -25.8336 37.9451 -18.6771 156.881 -78.3466 -159.07
RightUpLeg  19.5802 -22.8224 -6.61961
RightLeg  22.8572 4.38004 2.00742
RightFoot  -20.762 0.749986 10.9769
RightToes  0.00048216 0.542163 -0.142577
Spine  10.2658 1.12206 7.19182
Spine1  16.8253 4.12515 -5.95478
HEad  3.74513 22.2163 -13.1185
LeftShoulder1  9.01772 -13.5986 -45.9853
LeftArm  -9.50854 20.4858 -19.6049
LeftForeArm  22.5141 -14.5582 -4.37264
LeftHand  -0.25398 0.0180481 5.50724
RightShoulder  5.08836 9.31393 33.7494
RightArm  -11.0471 11.3103 27.0593
RightForeArm  -4.92982 36.5017 8.58997
RightHand  -1.94901 4.58663 -22.7427
LeftUpLeg  -22.963 18.6699 -6.8929
LeftLeg  4.55203 38.967 -7.83165
LeftFoot  -4.99732 -0.323991 6.60419
LeftToes  1.06244e-005 4.65854e-005 -8.18505e-006
61
root  -27.6106 37.6793 -19.259 160.164 -79.9886 -162.529
RightUpLeg  17.9227 -22.0956 -8.78843
RightLeg  31.7092 5.09571 3.072
RightFoot  -14.396 0.308119 15.8374
RightToes  0.00048216 0.542163 -0.142577
Spine  11.1389 1.64148 4.20532
Spine1  16.0281 4.28944 -5.62497
HEad  3.61928 22.9976 -13.106
LeftShoulder1  8.997 -13.4862 -46.1883
LeftArm  -10.7388 21.7906 -18.401
LeftForeArm  21.2884 -14.5434 -4.08817
LeftHand  -0.25398 0.0180481 5.50724
RightShoulder  5.3294 9.62703 34.6323
RightArm  -10.8499 10.0434 28.0541
RightForeArm  -4.05881 39.1276 9.3573
RightHand  -2.11902 5.16835 -23.3626
LeftUpLeg  -30.1852 35.56 -19.1841
LeftLeg  16.202 19.1314 3.42206
LeftFoot  -7.22225 -0.55792 16.4783
LeftToes  1.06244e-005 4.65854e-005 -8.18505e-006
62
root  -29.2145 37.5075 -19.7429 161.259 -83.2908 -164.167
RightUpLeg  12.303 -20.7594 -9.70528
RightLeg  44.9642 3.52416 3.40714
RightFoot  -1.06233 -1.40824 16.1602
RightToes  0.00048216 0.542163 -0.142577
Spine  13.463 1.39199 2.20345
Spine1  14.7774 3.7504 -5.54308
HEad  3.23331 23.3052 -13.8127
LeftShoulder1  9.07424 -13.6382 -46.1724
LeftArm  -12.1455 21.41 -17.809
LeftForeArm  20.5111 -13.953 -3.87492
LeftHand  -0.25398 0.0180481 5.50724
RightShoulder  5.43781 9.82314 34.8449
RightArm  -10.5551 9.29379 29.7359
RightForeArm  -3.60711 40.5848 9.81674
RightHand  -2.05604 4.88625 -23.2795
LeftUpLeg  -31.5495 34.186 -21.2401
LeftLeg  23.3259 17.3383 8.76095
LeftFoot  -9.39288 -0.293696 19.821
LeftToes  1.06244e-005 4.65854e-005 -8.18505e-006
63
root  -30.4859 37.3208 -20.1243 160.493 -87.78 -164.116
RightUpLeg  3.76926 -18.6072 -9.39693
RightLeg  58.9033 1.50015 2.16641
RightFoot  10.8215 -2.26776 11.8867
RightToes  0.00048216 0.542163 -0.142577
Spine  16.9952 0.692341 1.20398
Spine1  14.1286 3.05027 -6.22906
HEad  2.6055 22.6811 -15.2232
LeftShoulder1  9.21262 -13.9887 -45.9298
LeftArm  -13.262 19.2115 -17.9655
LeftForeArm  20.8499 -13.5557 -3.74556
LeftHand  -0.25398 0.0180481 5.50724
RightShoulder  5.37431 9.82968 34.3547
RightArm  -9.95818 9.52345 31.3586
RightForeArm  -4.10154 41.2432 10.0746
RightHand  -1.80305 3.88809 -22.6072
LeftUpLeg  -29.4487 29.3472 -19.7149
LeftLeg  29.2173 18.6533 11.2472
LeftFoot  -11.644 0.115433 17.9595
LeftToes  1.06244e-005 4.65854e-005 -8.18505e-006
64
root  -31.6109 37.2079 -20.4798 -22.5746 -87.42 18.36
RightUpLeg  -5.36667 -15.7628 -8.78887
RightLeg  70.0603 0.015175 -0.805959
RightFoot  13.791 -1.52336 7.14075
RightToes  0.00048216 0.542163 -0.142577
Spine  20.5468 -0.0762186 0.826808
Spine1  14.1561 2.36247 -6.90458
HEad  1.86608 21.284 -16.7335
LeftShoulder1  9.36551 -14.3164 -45.8297
LeftArm  -13.6184 16.0233 -18.4529
LeftForeArm  21.9984 -14.793 -3.68597
LeftHand  -0.25398 0.0180481 5.50724
RightShoulder  5.34717 9.92359 33.8757
RightArm  -8.81329 11.0014 31.9206
RightForeArm  -4.27435 41.1626 10.0577
RightHand  -1.55331 2.99342 -21.5635
LeftUpLeg  -27.1796 26.9181 -19.5871
LeftLeg  32.3271 16.9791 11.6001
LeftFoot  -13.6718 0.416852 16.1745
LeftToes  1.06244e-005 4.65854e-005 -8.18505e-006
65
root  -32.7872 37.293 -20.8677 -15.982 -82.3971 11.494
RightUpLeg  -13.6757 -13.1498 -8.75062
RightLeg  75.9901 -0.757907 -4.68265
RightFoot  10.8792 -0.617794 3.53272
RightToes  0.00048216 0.542163 -0.142577
Spine  23.5692 -0.877512 0.754443
Spine1  14.0489 1.42074 -6.71257
HEad  1.15158 19.4046 -17.5504
LeftShoulder1  9.50033 -14.5736 -45.8283
LeftArm  -12.752 12.9739 -18.9536
LeftForeArm  23.3618 -18.4562 -3.60688
LeftHand  -0.25398 0.0180481 5.50724
RightShoulder  5.43548 10.1761 33.7862
RightArm  -7.34677 13.3914 31.5607
RightForeArm  -2.94447 40.1693 9.63866
RightHand  -1.38838 2.55348 -20.3687
LeftUpLeg  -24.3481 23.9129 -19.0404
LeftLeg  33.6219 15.6047 11.2459
LeftFoot  -14.8752 0.578561 15.722
LeftToes  1.06244e-005 4.65854e-005 -8.18505e-006
66
root  -33.9495 37.5027 -21.3169 -13.9953 -76.9429 9.41122
RightUpLeg  -20.593 -10.9881 -9.78223
RightLeg  76.2503 -1.21601 -7.0812
RightFoot  7.25051 -0.34122 2.41318
RightToes  0.00048216 0.542163 -0.142577
Spine  26.685 -1.63656 0.704628
Spine1  13.4566 0.321496 -5.94171
HEad  0.506811 17.0093 -17.4694
LeftShoulder1  9.64603 -14.9571 -45.5556
LeftArm  -11.6545 10.4588 -19.4354
LeftForeArm  26.1944 -23.8814 -3.74202
LeftHand  -0.25398 0.0180481 5.50724
RightShoulder  5.47867 10.3068 33.7232
RightArm  -6.04479 15.8693 31.1551
RightForeArm  -1.45116 38.5829 9.03021
RightHand  -1.3242 2.46153 -19.6714
LeftUpLeg  -21.4894 19.4676 -18.0975
LeftLeg  34.341 15.0505 11.1502
LeftFoot  -15.2818 0.591015 14.4175
LeftToes  1.06244e-005 4.65854e-005 -8.18505e-006
67
root  -35.0872 37.7079 -21.8369 -11.4438 -71.4925 6.58839
RightUpLeg  -25.647 -9.01712 -11.1506
RightLeg  71.914 -2.05482 -7.96732
RightFoot  4.75018 -0.212367 1.70787
RightToes  0.00048216 0.542163 -0.142577
Spine  30.076 -2.27549 1.36283
Spine1  12.6392 -0.502961 -5.07834
HEad  -0.180089 14.0237 -16.8817
LeftShoulder1  9.8551 -15.5535 -45.0655
LeftArm  -11.7818 7.98124 -19.8257
LeftForeArm  31.5548 -29.6603 -4.70378
LeftHand  -0.25398 0.0180481 5.50724
RightShoulder  5.39044 10.2089 33.3649
RightArm  -5.22359 17.9365 30.8785
RightForeArm  -1.65129 37.0604 8.56931
RightHand  -1.36599 2.65881 -19.7953
LeftUpLeg  -18.9673 14.8366 -16.5176
LeftLeg  35.4078 14.3202 11.0474
LeftFoot  -15.7619 0.564608 12.127
LeftToes  1.06244e-005 4.65854e-005 -8.18505e-006
68
root  -36.2662 37.8538 -22.4082 -8.7836 -66.3923 3.79189
RightUpLeg  -28.5918 -7.1447 -12.4269
RightLeg  63.3367 -3.82125 -8.76099
RightFoot  2.22481 -0.0410898 0.490993
RightToes  0.00048216 0.542163 -0.142577
Spine  33.0161 -2.7606 2.62729
Spine1  12.1219 -0.900931 -4.27211
HEad  -1.16999 10.7196 -16.0575
LeftShoulder1  10.0533 -16.1193 -44.6249
LeftArm  -11.4145 4.80838 -20.2185
LeftForeArm  35.4853 -34.6484 -5.6846
LeftHand  -0.25398 0.0180481 5.50724
RightShoulder  5.28907 10.1078 32.9147
RightArm  -4.92888 19.8202 30.2115
RightForeArm  -2.74961 35.8332 8.2679
RightHand  -1.41924 2.92937 -19.9094
LeftUpLeg  -17.2152 10.632 -14.4958
LeftLeg  36.81 13.0819 10.6615
LeftFoot  -16.6868 0.591896 10.4838
LeftToes  1.06244e-005 4.65854e-005 -8.18505e-006
69
root  -37.567 37.9289 -23.0081 -6.83641 -61.358 2.69672
RightUpLeg  -29.8635 -6.06745 -14.4437
RightLeg  50.5768 -6.05639 -8.24828
RightFoot  0.31106 -0.139644 1.39473
RightToes  0.00048216 0.542163 -0.142577
Spine  34.8208 -3.10424 3.44343
Spine1  11.9734 -1.1421 -3.69216
HEad  -2.63775 7.54044 -14.8814
LeftShoulder1  10.0479 -16.3795 -43.9844
LeftArm  -10.5626 0.611261 -20.9792
LeftForeArm  35.9452 -37.6923 -6.45177
LeftHand  -0.25398 0.0180481 5.50724
RightShoulder  5.2555 10.1542 32.5372
RightArm  -5.07943 21.7406 29.1132
RightForeArm  -2.88867 34.75 7.96347
RightHand  -1.34948 2.80144 -19.2334
LeftUpLeg  -16.7911 6.22918 -12.8536
LeftLeg  38.3815 11.7185 10.1567
LeftFoot  -17.8561 0.627901 9.13415
LeftToes  1.06244e-005 4.65854e-005 -8.18505e-006
70
root  -39.0165 37.9409 -23.6134 -5.42873 -55.8911 3.20012
RightUpLeg  -29.8378 -6.29673 -17.5148
RightLeg  35.112 -6.91178 -5.41705
RightFoot  -0.620773 -0.392627 4.15173
RightToes  0.00048216 0.542163 -0.142577
Spine  35.7372 -3.48869 3.74123
Spine1  11.7541 -1.48773 -3.44146
HEad  -4.39419 4.60015 -13.2567
LeftShoulder1  9.825 -16.4448 -42.8028
LeftArm  -9.40599 -4.50296 -22.4704
LeftForeArm  33.1434 -37.925 -6.68684
LeftHand  -0.25398 0.0180481 5.50724
RightShoulder  5.21476 10.2404 31.9973
RightArm  -5.47764 23.2465 28.1408
RightForeArm  -2.49838 33.8407 7.68629
RightHand  -1.25377 2.48721 -18.6035
LeftUpLeg  -17.4605 1.48108 -11.7184
LeftLeg  40.0513 10.3094 9.53882
LeftFoot  -19.0069 0.587103 7.04886
LeftToes  1.06244e-005 4.65854e-005 -8.18505e-006
71
root  -40.5691 37.8575 -24.2396 -4.4028 -49.9956 4.26384
RightUpLeg  -28.5612 -7.46923 -20.5235
RightLeg  20.3008 -4.80424 -2.66817
RightFoot  -2.76256 -0.428606 5.40864
RightToes  0.00048216 0.542163 -0.142577
Spine  36.7625 -3.92172 4.08881
Spine1  11.1539 -1.80436 -3.39992
HEad  -6.06055 1.54247 -11.2646
LeftShoulder1  9.67723 -16.6738 -41.6
LeftArm  -8.27415 -10.2679 -24.2856
LeftForeArm  28.9274 -35.3076 -6.23817
LeftHand  -0.25398 0.0180481 5.50724
RightShoulder  5.11066 10.2376 31.2423
RightArm  -5.65184 23.9345 27.431
RightForeArm  -3.34769 33.0428 7.51393
RightHand  -1.37701 2.89558 -19.3805
LeftUpLeg  -18.4128 -2.81681 -10.5878
LeftLeg  41.7964 8.55391 8.49854
LeftFoot  -20.1842 0.520544 5.14718
LeftToes  1.06244e-005 4.65854e-005 -8.18505e-006
